# xmcd
#
# Track frame offsets:
#	150
#	12173
#	25206
#	40827
#	52307
#	63116
#	75362
#	88069
#	95158
#	106322
#	116785
#	127366
#	136220
#	149009
#
# Disc length: 2170 seconds
#
# Revision: 0
# Processed by: cddbd v1.5.2PL0 Copyright (c) Steve Scherf et al.
# Submitted via: audiograbber 1.83.01
#
DISCID=c908780e
DTITLE=Carlos Gardel - A 70 años CD3
DYEAR=1900
DGENRE=tango
TTITLE0=Mi Buenos Aires Querido
TTITLE1=Volver
TTITLE2=El Dia que me Quieras
TTITLE3=Por Una Cabeza
TTITLE4=Esta Noche me Emborracho
TTITLE5=Me da Pena Confesarlo
TTITLE6=Silbando
TTITLE7=Mañanita de Campo
TTITLE8=Rubias de New York
TTITLE9=Tomo y Obligo
TTITLE10=Paseo de Julio
TTITLE11=Victoria
TTITLE12=Almagro
TTITLE13=Palomita Blanca
EXTD=
EXTT0=
EXTT1=
EXTT2=
EXTT3=
EXTT4=
EXTT5=
EXTT6=
EXTT7=
EXTT8=
EXTT9=
EXTT10=
EXTT11=
EXTT12=
EXTT13=
PLAYORDER=
